<?xml version="1.0" encoding="UTF-8" standalone="no"?>
<svg
        xmlns:dc="http://purl.org/dc/elements/1.1/"
        xmlns:cc="http://creativecommons.org/ns#"
        xmlns:rdf="http://www.w3.org/1999/02/22-rdf-syntax-ns#"
        xmlns="http://www.w3.org/2000/svg"
        viewBox="21 3 621 603"
        xml:space="preserve"
        id="svg2"
        version="1.1"><metadata
     id="metadata8"><rdf:RDF><cc:Work
         rdf:about=""><dc:format>image/svg+xml</dc:format><dc:type
           rdf:resource="http://purl.org/dc/dcmitype/StillImage" /></cc:Work></rdf:RDF></metadata><defs
     id="defs6"><clipPath
       id="clipPath18"
       clipPathUnits="userSpaceOnUse"><path
         id="path16"
         d="M 0,581.866 H 488.633 V 0 H 0 Z" /></clipPath><clipPath
       id="clipPath38"
       clipPathUnits="userSpaceOnUse"><path
         id="path36"
         d="M 0,581.866 H 488.633 V 0 H 0 Z" /></clipPath><clipPath
       id="clipPath110"
       clipPathUnits="userSpaceOnUse"><path
         id="path108"
         d="M 0,581.866 H 488.633 V 0 H 0 Z" /></clipPath><clipPath
       id="clipPath174"
       clipPathUnits="userSpaceOnUse"><path
         id="path172"
         d="M 0,581.866 H 488.633 V 0 H 0 Z" /></clipPath></defs><g
     transform="matrix(1.3333333,0,0,-1.3333333,0,775.82133)"
     id="g10"><g
       id="g12"><g
         clip-path="url(#clipPath18)"
         id="g14"><g
           transform="translate(159.2999,410.7032)"
           id="g20"><path
             id="path22"
             style="fill:#f14720;fill-opacity:1;fill-rule:nonzero;stroke:none"
             d="m 0,0 c 5.553,-5.02 11.248,-9.815 18.027,-13.164 11.672,-5.796 23.809,-8.635 36.805,-5.833 8.971,1.934 16.916,5.816 23.455,12.29 -0.043,-3.569 -1.475,-9.297 -6.962,-17.913 -1.384,-1.821 -2.835,-3.592 -4.442,-5.254 -7.889,-8.182 -17.334,-13.79 -28.174,-17.133 -8.297,-2.57 -16.648,-4.567 -25.465,-3.573 -0.441,0.038 -0.864,0.116 -1.283,0.19 -0.139,0.019 -0.273,0.057 -0.407,0.076 -0.279,0.057 -0.548,0.111 -0.81,0.188 -0.161,0.037 -0.316,0.078 -0.473,0.133 -0.224,0.057 -0.455,0.132 -0.675,0.206 -0.16,0.057 -0.327,0.117 -0.477,0.172 -0.199,0.076 -0.396,0.151 -0.596,0.244 -0.155,0.057 -0.316,0.135 -0.471,0.209 -0.177,0.088 -0.355,0.178 -0.521,0.272 -0.16,0.08 -0.311,0.168 -0.461,0.252 -0.15,0.094 -0.295,0.187 -0.44,0.295 -0.355,0.228 -0.687,0.471 -1.003,0.737 -0.065,0.057 -0.135,0.106 -0.203,0.164 -0.161,0.139 -0.322,0.308 -0.484,0.458 -0.081,0.09 -0.165,0.166 -0.241,0.252 -0.15,0.158 -0.301,0.341 -0.439,0.512 -0.076,0.076 -0.14,0.17 -0.21,0.245 -0.139,0.19 -0.274,0.378 -0.402,0.579 -0.054,0.075 -0.107,0.158 -0.156,0.233 -0.129,0.21 -0.262,0.429 -0.381,0.644 -0.027,0.057 -0.058,0.127 -0.086,0.183 -0.132,0.264 -0.257,0.542 -0.369,0.807 -0.027,0.074 -0.054,0.15 -0.08,0.211 -0.087,0.223 -0.167,0.43 -0.236,0.657 -0.027,0.076 -0.049,0.15 -0.076,0.226 -0.065,0.238 -0.133,0.472 -0.188,0.719 -0.015,0.061 -0.032,0.111 -0.048,0.175 -0.064,0.301 -0.124,0.613 -0.172,0.926 v 0.006 c 2.301,2.325 5.525,7.117 7.847,10.772 0.161,0.226 0.322,0.445 0.478,0.674 0.44,0.654 0.868,1.316 1.27,1.976 0.006,0.013 0.017,0.021 0.017,0.032 0.402,0.676 0.794,1.354 1.147,2.049 v 0.005 h 0.006 c 0.209,0.415 0.424,0.856 0.617,1.29 0.016,0.04 0.032,0.078 0.054,0.116 0.165,0.396 0.326,0.794 0.478,1.191 0.031,0.075 0.064,0.149 0.09,0.244 0.134,0.359 0.257,0.742 0.37,1.12 0.027,0.102 0.069,0.209 0.096,0.303 0.129,0.472 0.253,0.958 0.35,1.438 0.461,2.271 0.439,2.349 -1.508,3.451 -0.595,0.341 -1.186,0.692 -1.813,1.07 -0.027,-0.952 -0.214,-1.746 -0.337,-2.25 -2.086,-8.729 -7.038,-16.004 -15.11,-22.22 0.602,-2.841 1.41,-5.605 3.009,-8.089 3.851,-5.978 9.703,-8.238 16.461,-8.729 4.763,-0.341 9.493,0.062 14.148,1.133 11.634,2.692 22.565,7.004 32.337,13.985 7.644,5.472 14.032,12.219 19.969,19.399 l 4.146,6.455 1.609,-3.948 c 0.917,-0.279 1.877,-0.201 2.892,0.132 0.76,0.257 1.565,0.372 2.333,0.606 9.761,3.041 15.553,11.834 13.724,21.837 C 104.621,13.908 94.151,19.979 84.245,16.257 81.891,15.37 79.671,14.238 77.482,13.039 77.444,13.023 77.418,13.025 77.38,13.01 76.929,12.796 76.462,12.592 75.985,12.396 68.581,8.631 55.914,6.325 39.446,19.049 c 0,0 -0.01,0.008 -0.012,0.009 -2.371,1.375 -4.754,2.726 -7.194,3.985 -6.789,3.147 -17.066,6.265 -24.979,1.5 2.183,-1.667 4.317,-3.52 6.325,-5.65 0,0 9.23,-8.457 19.175,-13.51 0.571,-0.29 1.141,-0.574 1.716,-0.837 2.531,-1.171 5.078,-2.087 7.498,-2.537 0,0 -3.575,-0.386 -8.619,0.073 -3.649,0.19 -7.087,0.939 -10.416,2.094 -0.774,0.249 -1.549,0.528 -2.328,0.834 -0.008,0.003 -0.018,0.008 -0.026,0.011 -0.006,0.003 -0.009,0.003 -0.014,0.005 -2.996,1.182 -5.977,2.776 -8.693,4.967 -0.02,0.013 -0.035,0.024 -0.051,0.037 -0.027,0.021 -0.055,0.038 -0.081,0.059 -0.129,0.105 -0.258,0.202 -0.387,0.306 -1.335,0.989 -2.635,2.024 -3.913,3.1 -9.157,7.042 -18.986,12.731 -31.711,13.203 -0.709,0.026 -1.434,0.026 -2.169,0.007 h -0.012 c -0.734,-0.018 -1.476,-0.054 -2.223,-0.096 -1.168,-0.065 -2.309,-0.084 -3.525,-0.238 -4.422,-0.47 -8.469,-1.444 -12.2,-3.01 -2.724,-1.158 -4.757,-2.406 -6.238,-3.904 -1.732,-3.012 -1.399,-6.707 0.805,-9.462 1.969,-2.462 4.746,-3.344 7.777,-3.639 3.728,-0.348 7.102,1.033 10.529,2.135 3.086,0.981 6.202,1.539 9.362,1.587 C -16.578,9.922 -9.007,7.954 -0.839,0.759 -0.561,0.507 -0.277,0.252 0,0" /></g><g
           transform="translate(178.1231,263.1172)"
           id="g24"><path
             id="path26"
             style="fill:#f14720;fill-opacity:1;fill-rule:nonzero;stroke:none"
             d="m 0,0 c -0.456,-0.048 -0.918,-0.092 -1.381,-0.134 -3.225,-0.299 -6.602,-0.416 -9.358,-0.438 -3.375,-0.04 -5.793,0.037 -5.798,0.037 l -4.216,0.416 c 1.625,-1.859 4.537,-4.757 9.176,-8.031 3.146,-2.232 7.123,-4.635 11.999,-7.003 4.076,-1.981 8.768,-3.936 14.229,-5.747 6.19,-2.008 13.184,-3.978 20.795,-5.631 h 0.01 c 25.777,-5.605 50.021,-5.97 72.407,-1.148 h 0.038 c 1.518,0.31 2.998,0.654 4.442,1.035 24.472,6.5 38.348,23.457 38.439,23.57 3.857,5.095 7.561,11.252 9.951,18.216 C 121.1,-20.62 46.031,-10.716 0,0" /></g><g
           transform="translate(142.9336,199.9414)"
           id="g28"><path
             id="path30"
             style="fill:#f14720;fill-opacity:1;fill-rule:nonzero;stroke:none"
             d="m 0,0 c -0.615,-0.637 -1.236,-1.268 -1.868,-1.887 4.123,-4.705 8.87,-8.957 14.121,-12.842 3.076,-2.273 6.28,-4.457 9.75,-6.445 0.371,-0.215 0.746,-0.43 1.127,-0.638 2.215,-1.256 4.458,-2.473 6.807,-3.45 0.032,-0.015 0.07,-0.031 0.101,-0.031 0.344,-0.15 0.688,-0.291 1.03,-0.424 0.06,-0.017 0.113,-0.037 0.177,-0.06 0.043,-0.278 0.322,-0.225 0.493,-0.336 0.499,-0.254 0.988,-0.543 1.503,-0.768 18.697,-8.025 38.354,-12.004 58.527,-13.682 8.961,-0.746 17.946,-1.009 26.951,-0.724 8.512,0.279 16.997,0.848 25.444,1.892 3.492,0.436 6.968,0.95 10.428,1.512 12.035,1.803 22.767,4.399 32.33,7.51 4.843,1.561 9.381,3.277 13.64,5.08 61.1,25.83 73.126,97.009 73.142,97.085 0.667,4.113 1.149,8.361 1.479,12.67 C 205.707,-66.391 48.601,-19.062 0,0" /></g></g></g><g
       id="g32"><g
         clip-path="url(#clipPath38)"
         id="g34"><g
           transform="translate(198.962,474.2359)"
           id="g40"><path
             id="path42"
             style="fill:#fbc10b;fill-opacity:1;fill-rule:nonzero;stroke:none"
             d="M 0,0 C 0.031,0.067 0.062,0.135 0.096,0.202 0.067,0.158 0.039,0.118 0.012,0.073 0.012,0.073 0.006,0.037 0,0" /></g><g
           transform="translate(155.6651,355.0943)"
           id="g44"><path
             id="path46"
             style="fill:#fbc10b;fill-opacity:1;fill-rule:nonzero;stroke:none"
             d="M 0,0 C -0.021,0.016 -0.047,0.03 -0.067,0.046 L -0.158,-0.115 Z" /></g><g
           transform="translate(221.1709,361.7466)"
           id="g48"><path
             id="path50"
             style="fill:#fbc10b;fill-opacity:1;fill-rule:nonzero;stroke:none"
             d="M 0,0 0.01,0.012 C 0.004,0.006 -0.004,0 -0.01,-0.006 -0.007,-0.004 -0.004,-0.002 0,0" /></g><g
           transform="translate(139.6631,351.9546)"
           id="g52"><path
             id="path54"
             style="fill:#fbca07;fill-opacity:1;fill-rule:nonzero;stroke:none"
             d="M 0,0 C 1.293,-1.185 2.557,-2.446 3.787,-3.778 7.145,-0.342 10.23,2.437 12.771,4.563 12.295,4.608 11.824,4.646 11.346,4.698 3.734,4.999 -3.879,6.608 -11.34,9.339 -7.115,6.93 -3.38,3.728 0,0" /></g><g
           transform="translate(125.7432,301.0669)"
           id="g56"><path
             id="path58"
             style="fill:#fbc10b;fill-opacity:1;fill-rule:nonzero;stroke:none"
             d="m 0,0 c 2.822,-5.445 4.833,-11.986 5.646,-19.216 h 9.932 c -4.772,6.021 -7.219,11.041 -7.433,11.489 l -3.067,6.422 -1.38,2.886 6.667,-4.245 2.039,-1.299 c 1.785,-1.135 3.776,-2.147 5.942,-3.035 -0.182,0.855 -0.472,1.62 -0.678,2.457 C 16.26,1.206 14.424,6.611 12.05,11.355 10.379,13.421 8.932,15.329 7.707,16.994 5.453,13.551 3.428,10.152 1.62,6.799 0.828,4.977 0.066,3.141 -0.624,1.277 -0.398,0.875 -0.217,0.417 0,0" /></g><g
           transform="translate(171.2393,472.7266)"
           id="g60"><path
             id="path62"
             style="fill:#fbc10b;fill-opacity:1;fill-rule:nonzero;stroke:none"
             d="m 0,0 c -0.069,0.019 -0.123,0.03 -0.187,0.039 0.027,-0.058 0.053,-0.127 0.08,-0.191 C -0.069,-0.096 -0.037,-0.045 0,0" /></g><g
           transform="translate(171.0518,472.7652)"
           id="g64"><path
             id="path66"
             style="fill:#fbc10b;fill-opacity:1;fill-rule:nonzero;stroke:none"
             d="M 0,0 C -0.005,0 -0.005,0 -0.005,0.01 V 0 Z" /></g><g
           transform="translate(111.7696,335.1753)"
           id="g68"><path
             id="path70"
             style="fill:#fbca07;fill-opacity:1;fill-rule:nonzero;stroke:none"
             d="m 0,0 v -19.987 c 2.241,-0.876 4.361,-2.221 6.331,-3.946 2.676,5.895 5.664,11.264 8.778,16.116 C 10.574,-3.647 5.463,-0.899 0,0" /></g><g
           transform="translate(83.2911,357.2349)"
           id="g72"><path
             id="path74"
             style="fill:#fbca07;fill-opacity:1;fill-rule:nonzero;stroke:none"
             d="M 0,0 -27.834,25.517 C -23.023,16.535 -15.721,4.639 -6.472,-5.264 -4.389,-3.33 -2.23,-1.568 0,0" /></g><g
           transform="translate(131.3887,266.8716)"
           id="g76"><path
             id="path78"
             style="fill:#fbc10b;fill-opacity:1;fill-rule:nonzero;stroke:none"
             d="m 0,0 c -1.255,-11.168 -5.272,-20.793 -10.888,-27.021 1.496,-6.655 3.513,-12.93 6.067,-18.797 C 5.562,-36.496 12.942,-19.703 14.454,0 Z" /></g><g
           transform="translate(90.4493,387.0454)"
           id="g80"><path
             id="path82"
             style="fill:#fbca07;fill-opacity:1;fill-rule:nonzero;stroke:none"
             d="m 0,0 c -8.131,8.616 -14.025,17.429 -17.544,23.317 -0.02,-9.073 1.073,-16.537 2.575,-22.51 0.114,-0.37 4.836,-15.775 17.473,-25.28 5.402,2.276 11.086,3.526 16.969,3.526 3.829,0 7.344,-0.551 10.619,-1.508 C 19.421,-17.295 9.209,-9.762 0,0" /></g><g
           transform="translate(78.2793,313.2622)"
           id="g84"><path
             id="path86"
             style="fill:#fbca07;fill-opacity:1;fill-rule:nonzero;stroke:none"
             d="m 0,0 c -0.997,-1.926 -1.952,-3.914 -2.8,-6.028 2.452,-3.779 4.978,-7.351 7.564,-10.727 2.117,5.449 5.035,9.954 8.433,13.366 1.671,1.678 3.419,3.172 5.319,4.226 V 19.67 C 11.164,16.16 4.769,9.189 0,0" /></g><g
           transform="translate(69.0059,346.3687)"
           id="g88"><path
             id="path90"
             style="fill:#fbca07;fill-opacity:1;fill-rule:nonzero;stroke:none"
             d="m 0,0 -14.25,5.744 c 0.016,-0.032 0.026,-0.069 0.037,-0.106 2.06,-6.741 4.516,-13.016 7.129,-19.071 2.657,4.61 5.594,8.838 8.779,12.621 z" /></g><g
           transform="translate(267.4131,422.1289)"
           id="g92"><path
             id="path94"
             style="fill:#fbc10b;fill-opacity:1;fill-rule:nonzero;stroke:none"
             d="M 0,0 C 0.194,-0.299 0.395,-0.596 0.573,-0.9 L 0.466,-0.427 Z" /></g><g
           transform="translate(341.1553,287.9283)"
           id="g96"><path
             id="path98"
             style="fill:#fbc10b;fill-opacity:1;fill-rule:nonzero;stroke:none"
             d="m 0,0 c 0.365,2.82 0.488,5.72 0.296,8.709 -0.955,11.074 -6.823,18.746 -9.849,22.016 -5.18,5.398 -13.236,11.282 -25.089,13.851 -12.208,2.653 -26.368,1.284 -42.083,-4.058 -3.062,-1.151 -56.391,-21.137 -102.084,-15.305 -3.175,0.397 -6.317,0.933 -9.39,1.594 h -0.012 c -4.312,0.937 -8.393,2.129 -12.234,3.572 1.486,-1.91 3.181,-3.988 5.052,-6.147 0,0 7.704,-10.406 20.806,-18.59 6.698,-4.175 14.814,-7.772 24.044,-9.099 l -11.644,-0.523 c -0.194,-0.022 -1.95,-0.202 -4.708,-0.291 -1.835,-0.063 -4.101,-0.087 -6.689,0.001 -4.554,0.151 -10.046,0.636 -15.673,1.864 -2.327,0.505 -4.537,1.107 -6.634,1.821 -0.285,0.08 -0.574,0.169 -0.847,0.271 0.284,-0.385 0.6,-0.788 0.961,-1.223 4.172,-4.95 13.284,-12.54 22.37,-17.994 3.038,-1.816 6.028,-3.301 8.879,-4.469 0.6,-0.243 1.239,-0.572 1.821,-0.779 -0.106,-0.013 -0.218,-0.021 -0.325,-0.032 46.031,-10.716 121.099,-20.62 160.733,15.142 1.031,3.004 1.821,6.155 2.268,9.44 C -0.021,-0.15 -0.011,-0.076 0,0" /></g><g
           transform="translate(441.3936,404.8145)"
           id="g100"><path
             id="path102"
             style="fill:#fbc10b;fill-opacity:1;fill-rule:nonzero;stroke:none"
             d="m 0,0 c -4.039,1.247 -8.126,2.028 -12.33,2.368 -8.576,0.692 -17.351,-0.429 -26.1,-3.314 -9.55,-3.168 -18.106,-8.365 -25.208,-13.039 -6.039,-3.955 -12.004,-8.332 -17.779,-12.559 -3.621,-2.658 -7.37,-5.403 -11.125,-8.05 -7.165,-5.027 -14.271,-9.826 -22.413,-13.106 -6.217,-2.515 -11.816,-3.245 -17.239,-2.255 -7.632,1.359 -13.602,5.881 -17.737,13.409 -3.112,5.671 -4.507,11.618 -5.263,16.719 -6.036,-3.817 -13.371,-6.791 -22.096,-7.72 -0.149,-0.044 -0.254,-0.059 -0.289,-0.037 -0.278,0.202 2.101,1.943 5.151,4.015 4.028,3.298 9.875,8.431 15.553,14.627 3.939,4.52 7.093,8.647 9,11.247 0.981,1.444 1.906,2.913 2.766,4.403 1.917,3.989 3.603,8.1 5.118,12.287 3.759,10.445 5.835,21.239 6.44,32.283 0.419,7.608 0.161,15.211 -1.03,22.768 -0.525,3.376 -1.2,6.71 -2.06,9.978 -0.005,0.019 -0.005,0.038 -0.015,0.057 -0.145,0.635 -0.312,1.241 -0.472,1.858 -0.548,2.055 -1.175,4.025 -1.851,5.903 -0.337,0.925 -0.686,1.831 -1.051,2.727 -0.991,2.406 -2.071,4.629 -3.201,6.683 0,0.056 -0.006,0.107 -0.006,0.156 -0.322,0.573 -0.659,1.139 -1.008,1.699 h -0.038 c -0.225,0.392 -0.45,0.77 -0.686,1.143 -0.081,0.132 -0.162,0.263 -0.242,0.397 -0.311,0.491 -0.622,0.962 -0.928,1.435 -0.295,0.442 -0.584,0.876 -0.88,1.293 -0.37,0.527 -0.739,1.037 -1.104,1.528 -1.834,2.465 -3.642,4.529 -5.278,6.198 -0.799,0.831 -1.555,1.576 -2.252,2.207 -0.006,0.01 -0.012,0.01 -0.012,0.01 l 4.275,1.588 1.969,0.743 c 9.295,4.736 13.442,14.09 13.843,19.684 -6.356,-3.186 -16.766,-4.736 -31.65,-4.736 -2.113,0 -4.21,0.043 -6.281,0.099 l -33.275,4.39 c -0.868,0.097 -1.743,0.158 -2.607,0.214 -0.342,0.033 -0.525,0.052 -0.525,0.052 h 0.011 c -27.403,1.756 -49.199,-8.585 -56.79,-12.768 -6.966,-4.39 -13.028,-9.925 -17.838,-17.032 -5.611,-8.3 -8.722,-17.332 -10.272,-26.825 l 0.102,-0.907 c -0.44,-2.419 -0.804,-4.926 -1.083,-7.541 -0.091,-1.252 -0.177,-2.499 -0.22,-3.754 -0.101,-2.529 -0.126,-5.056 -0.078,-7.576 0.04,-2.205 0.158,-4.404 0.301,-6.6 0.021,-0.314 0.021,-0.63 0.045,-0.942 0.167,-2.308 0.386,-4.612 0.654,-6.91 v -0.011 c 0.224,-1.933 0.486,-3.862 0.766,-5.789 0.053,-0.366 0.101,-0.732 0.157,-1.098 v 0.003 0.002 0.003 0.003 0.002 0.004 0.002 0.003 c -0.548,5.817 -0.735,10.84 -0.638,15.178 0.048,2.173 0.166,4.171 0.348,6.01 0.178,1.839 0.419,3.519 0.711,5.049 0.002,0.012 0.006,0.02 0.008,0.031 0.327,1.713 0.712,3.247 1.148,4.618 0,0 0.008,0.021 0.01,0.031 0.131,0.407 0.262,0.803 0.4,1.181 0.1,0.274 0.195,0.546 0.293,0.82 0.039,0.108 0.077,0.225 0.117,0.325 0.27,0.65 0.553,1.239 0.842,1.801 2.883,6.493 9.459,18.458 19.277,19.906 0,0 -6.052,-5.189 -7.542,-12.698 1.621,-0.083 2.64,-0.543 2.64,-0.543 1.324,-0.459 2.457,-1.247 3.449,-2.223 2.114,-2.07 3.549,-4.578 4.746,-7.249 3.084,-6.851 3.814,-14.165 3.997,-21.566 0.105,-4.261 -0.172,-8.502 -0.633,-12.737 5.187,-0.285 11.019,-1.949 17.153,-6.064 -1.06,9.132 -4.383,52.507 28.224,51.616 1.154,-0.015 2.367,-0.115 3.636,-0.337 0.166,-0.041 2.014,-0.537 4.596,-1.911 0.093,7.198 -10.818,18.212 -10.818,18.212 23.388,-7.5 27.336,-40.991 27.336,-40.991 0.081,0.024 0.167,0.048 0.257,0.071 0.312,-1.879 0.569,-3.922 0.751,-6.135 0.563,-6.738 0.439,-15.115 -0.778,-25.582 6.269,0.982 18.093,0.734 23.863,-13.118 0,0 0.807,-2.099 1.284,-5.253 4.83,-19.709 -8.715,-27.036 -19.228,-29.762 -1.894,-0.491 -3.691,-0.837 -5.264,-1.074 -8.038,-10.302 -34.193,-40.085 -67.26,-39.145 -10.142,-0.05 -17.349,3.026 -20.18,4.48 -3.699,-2.721 -7.188,-5.662 -10.439,-8.859 3.402,-4.949 6.412,-10.551 8.968,-16.685 16.957,-3.896 51.238,-5.842 108.534,14.918 l 0.003,-0.004 c 0,0 2.43,0.942 6.475,2.065 15.213,4.223 53.354,11.029 71.745,-19.903 0.011,-0.016 0.022,-0.032 0.031,-0.049 0,0 0.18,-0.318 0.479,-0.916 1.503,-3.015 6.03,-13.206 5.951,-26.388 -0.075,-12.565 -4.336,-27.844 -19.403,-42.219 -5.442,-5.904 -17.405,-17.004 -34.938,-22.951 -4.687,-1.342 -9.467,-2.469 -14.336,-3.369 h -0.049 c -2.128,-0.284 -3.973,-0.584 -5.55,-0.916 -20.553,-2.989 -42.543,-2.077 -65.124,2.82 h -0.011 c -9.086,1.975 -17.276,4.365 -24.297,6.748 -2.902,1.115 -5.589,2.322 -8.18,3.557 -5.349,2.547 -10.109,5.277 -14.223,8.06 -3.741,-20.347 -11.89,-34.195 -22.68,-45.344 48.601,-19.063 205.707,-66.391 275.182,84.462 2.862,37.314 -5.748,79.262 -5.792,79.606 l 9.568,-15.179 C -21.427,-24.363 -7.053,-6.691 0,0" /></g></g></g><g
       id="g104"><g
         clip-path="url(#clipPath110)"
         id="g106"><g
           transform="translate(421.8916,348.8306)"
           id="g112"><path
             id="path114"
             style="fill:#231f20;fill-opacity:1;fill-rule:nonzero;stroke:none"
             d="m 0,0 -9.568,15.179 c 0.048,-0.384 10.759,-52.535 4.313,-92.277 -0.016,-0.075 -12.042,-71.254 -73.142,-97.084 -4.259,-1.803 -8.797,-3.52 -13.64,-5.08 -9.563,-3.112 -20.295,-5.707 -32.33,-7.51 -3.46,-0.562 -6.936,-1.076 -10.428,-1.512 -8.447,-1.045 -16.932,-1.613 -25.444,-1.892 -9.005,-0.285 -17.99,-0.022 -26.951,0.724 -20.173,1.678 -39.83,5.657 -58.527,13.682 -0.515,0.225 -1.004,0.514 -1.503,0.768 -0.171,0.111 -0.45,0.058 -0.493,0.335 -0.064,0.024 -0.117,0.043 -0.177,0.061 -0.342,0.133 -0.686,0.273 -1.03,0.424 -0.031,0 -0.069,0.015 -0.101,0.031 -2.349,0.977 -4.592,2.193 -6.807,3.449 -0.381,0.209 -0.756,0.424 -1.127,0.639 -3.47,1.988 -6.674,4.172 -9.75,6.445 -5.251,3.885 -9.998,8.137 -14.121,12.842 11.719,11.473 20.595,25.723 24.548,47.231 4.114,-2.783 8.874,-5.514 14.223,-8.06 2.591,-1.235 5.278,-2.442 8.18,-3.557 7.021,-2.383 15.211,-4.774 24.297,-6.748 h 0.011 c 22.581,-4.897 44.571,-5.809 65.124,-2.82 1.577,0.332 3.422,0.632 5.55,0.916 h 0.049 c 4.869,0.9 9.649,2.027 14.336,3.369 17.533,5.947 29.496,17.047 34.938,22.951 15.067,14.375 19.328,29.654 19.403,42.219 0.079,13.182 -4.448,23.373 -5.951,26.388 -0.299,0.598 -0.479,0.916 -0.479,0.916 -0.009,0.017 -0.02,0.033 -0.031,0.049 -18.391,30.932 -56.532,24.126 -71.745,19.902 -4.045,-1.123 -6.475,-2.064 -6.475,-2.064 l -0.003,0.004 c -57.296,-20.76 -91.577,-18.815 -108.534,-14.918 -2.556,6.134 -5.566,11.736 -8.969,16.685 3.252,3.197 6.741,6.138 10.44,8.859 2.831,-1.454 10.038,-4.53 20.18,-4.481 33.067,-0.939 59.222,28.844 67.26,39.145 1.573,0.238 3.37,0.584 5.264,1.075 10.513,2.726 24.058,10.053 19.228,29.761 -0.477,3.155 -1.284,5.254 -1.284,5.254 -5.77,13.852 -17.594,14.099 -23.863,13.118 1.217,10.467 1.341,18.844 0.778,25.582 -0.182,2.212 -0.439,4.256 -0.751,6.135 -0.09,-0.023 -0.176,-0.048 -0.257,-0.072 0,0 -2.059,17.436 -11.991,29.964 -3.833,4.834 -8.834,8.94 -15.345,11.028 0,0 5.296,-5.349 8.476,-11.028 1.384,-2.47 2.37,-5.002 2.342,-7.184 -2.582,1.374 -4.43,1.869 -4.596,1.911 -1.269,0.222 -2.482,0.322 -3.636,0.337 -32.607,0.89 -29.284,-42.485 -28.224,-51.616 -6.134,4.115 -11.966,5.778 -17.153,6.064 0.461,4.235 0.738,8.476 0.632,12.737 -0.182,7.401 -0.912,14.715 -3.996,21.566 -1.197,2.671 -2.632,5.179 -4.746,7.249 -0.992,0.976 -2.125,1.764 -3.449,2.223 0,0 -1.019,0.46 -2.64,0.543 0.457,2.304 1.345,4.386 2.355,6.17 2.28,4.032 5.187,6.528 5.187,6.528 -4.263,-0.629 -7.915,-3.242 -10.919,-6.528 -3.913,-4.281 -6.727,-9.705 -8.358,-13.379 -0.289,-0.561 -0.572,-1.15 -0.842,-1.8 -0.04,-0.1 -0.078,-0.217 -0.117,-0.325 -0.098,-0.274 -0.193,-0.546 -0.293,-0.82 -0.138,-0.378 -0.269,-0.774 -0.4,-1.181 -0.002,-0.01 -0.01,-0.031 -0.01,-0.031 -0.436,-1.371 -0.821,-2.905 -1.148,-4.618 -0.002,-0.011 -0.006,-0.019 -0.008,-0.031 -0.292,-1.53 -0.533,-3.21 -0.711,-5.049 -0.182,-1.839 -0.3,-3.837 -0.348,-6.01 -0.098,-4.338 0.09,-9.362 0.638,-15.179 V 97.602 97.6 97.596 97.594 97.591 97.588 97.586 97.583 c -0.056,0.366 -0.104,0.732 -0.157,1.098 -0.28,1.927 -0.542,3.856 -0.766,5.789 v 0.011 c -0.268,2.298 -0.487,4.602 -0.654,6.91 -0.024,0.312 -0.024,0.628 -0.045,0.942 -0.143,2.196 -0.261,4.395 -0.301,6.6 -0.048,2.52 -0.023,5.046 0.078,7.576 0.043,1.255 0.129,2.502 0.22,3.754 0.279,2.614 0.643,5.122 1.083,7.541 l -0.102,0.906 c 0.404,2.473 0.916,4.913 1.548,7.317 1.795,6.83 4.574,13.37 8.724,19.509 4.81,7.107 10.872,12.642 17.838,17.032 7.59,4.183 29.387,14.524 56.79,12.768 h -0.011 c 0,0 0.183,-0.019 0.525,-0.052 0.864,-0.056 1.739,-0.117 2.607,-0.214 l 33.275,-4.39 c 2.07,-0.056 4.168,-0.099 6.281,-0.099 14.884,0 25.294,1.55 31.65,4.736 -0.402,-5.594 -4.548,-14.948 -13.843,-19.684 l -1.969,-0.743 -4.275,-1.588 c 0,0 0.006,0 0.012,-0.01 0.697,-0.631 1.453,-1.376 2.252,-2.207 1.636,-1.669 3.444,-3.733 5.278,-6.198 0.365,-0.491 0.734,-1.001 1.104,-1.529 0.296,-0.416 0.585,-0.85 0.88,-1.293 0.306,-0.472 0.616,-0.943 0.928,-1.434 0.08,-0.134 0.161,-0.265 0.242,-0.397 0.236,-0.373 0.461,-0.751 0.686,-1.143 h 0.038 c 0.348,-0.56 0.686,-1.126 1.008,-1.699 0,-0.049 0.006,-0.1 0.006,-0.156 1.13,-2.054 2.209,-4.277 3.201,-6.683 0.365,-0.896 0.714,-1.803 1.051,-2.727 0.676,-1.878 1.303,-3.848 1.851,-5.903 0.16,-0.617 0.327,-1.223 0.472,-1.858 0.01,-0.019 0.01,-0.038 0.015,-0.057 0.86,-3.268 1.535,-6.602 2.06,-9.978 1.191,-7.557 1.449,-15.16 1.03,-22.768 -0.605,-11.044 -2.681,-21.838 -6.44,-32.283 -1.515,-4.187 -3.201,-8.298 -5.118,-12.287 -0.86,-1.49 -1.785,-2.959 -2.766,-4.403 -1.907,-2.6 -5.061,-6.727 -9,-11.247 -5.678,-6.196 -11.525,-11.33 -15.553,-14.627 -3.05,-2.072 -5.429,-3.813 -5.151,-4.015 0.035,-0.023 0.14,-0.007 0.289,0.037 8.725,0.929 16.059,3.903 22.096,7.72 0.755,-5.101 2.151,-11.048 5.263,-16.72 4.135,-7.527 10.105,-12.049 17.737,-13.408 5.422,-0.99 11.022,-0.26 17.239,2.255 8.141,3.279 15.248,8.079 22.413,13.106 3.755,2.647 7.504,5.392 11.125,8.05 5.775,4.227 11.74,8.603 17.779,12.559 7.102,4.674 15.657,9.871 25.208,13.039 8.749,2.885 17.524,4.005 26.1,3.314 4.204,-0.34 8.291,-1.121 12.33,-2.368 C 12.449,49.293 -1.925,31.621 0,0 m -295.324,-127.777 c -2.554,5.867 -4.571,12.142 -6.067,18.797 5.616,6.228 9.633,15.853 10.888,27.021 h 14.454 c -1.512,-19.703 -8.891,-36.496 -19.275,-45.818 m -14.798,94.134 v 19.988 c 5.463,-0.9 10.574,-3.648 15.109,-7.818 -3.114,-4.851 -6.102,-10.22 -8.778,-16.115 -1.97,1.725 -4.09,3.069 -6.331,3.945 m -1.848,50.911 c -5.883,0 -11.566,-1.25 -16.968,-3.526 -12.637,9.505 -17.36,24.909 -17.473,25.28 -1.502,5.973 -2.596,13.436 -2.575,22.51 3.518,-5.888 9.413,-14.701 17.544,-23.317 9.209,-9.762 19.421,-17.295 30.091,-22.455 -3.274,0.957 -6.79,1.508 -10.619,1.508 m -13.127,-51.999 c -1.899,-1.054 -3.647,-2.548 -5.318,-4.226 -3.398,-3.412 -6.316,-7.917 -8.434,-13.366 -2.586,3.376 -5.111,6.948 -7.563,10.726 0.848,2.115 1.803,4.103 2.8,6.029 4.768,9.189 11.164,16.16 18.515,19.67 z m 0,-98.312 c -14.363,6.863 -25.176,26.758 -27.037,51.084 h 9.735 c 1.694,-15.061 8.42,-27.324 17.302,-32.248 z m -23.776,84.265 c 2.477,-4.003 5.02,-7.841 7.62,-11.462 -0.492,-2.18 -0.884,-4.422 -1.146,-6.739 h -9.735 c 0.488,6.436 1.619,12.559 3.261,18.201 m -18.226,51.954 c -0.01,0.037 -0.021,0.074 -0.037,0.106 l 14.25,-5.744 1.696,-0.812 c -3.186,-3.783 -6.122,-8.011 -8.78,-12.621 -2.613,6.055 -5.069,12.331 -7.129,19.071 m 28.498,5.228 c -2.23,-1.568 -4.388,-3.33 -6.471,-5.263 -9.249,9.902 -16.552,21.798 -21.363,30.78 z m 50.16,-39.174 c 1.224,-1.665 2.671,-3.573 4.342,-5.638 2.374,-4.744 4.21,-10.15 5.619,-15.897 0.206,-0.837 0.496,-1.601 0.677,-2.457 -2.166,0.888 -4.156,1.901 -5.941,3.035 l -2.039,1.299 -6.667,4.245 1.38,-2.885 3.066,-6.422 c 0.215,-0.448 2.661,-5.469 7.434,-11.489 h -9.933 c -0.812,7.229 -2.823,13.77 -5.645,19.215 -0.217,0.417 -0.399,0.875 -0.624,1.278 0.69,1.863 1.452,3.699 2.244,5.521 1.807,3.354 3.833,6.752 6.087,10.195 m 43.176,-54.132 c -2.85,1.168 -5.84,2.653 -8.879,4.468 -9.085,5.455 -18.198,13.044 -22.37,17.995 -0.36,0.435 -0.676,0.837 -0.961,1.222 0.274,-0.101 0.563,-0.19 0.848,-0.27 2.097,-0.714 4.307,-1.317 6.634,-1.822 5.627,-1.227 11.119,-1.712 15.673,-1.863 2.588,-0.089 4.853,-0.064 6.688,-0.002 2.759,0.09 4.515,0.27 4.708,0.291 l 11.645,0.524 c -9.231,1.327 -17.346,4.923 -24.044,9.098 -13.103,8.185 -20.806,18.591 -20.806,18.591 -1.871,2.158 -3.566,4.236 -5.053,6.147 3.842,-1.444 7.922,-2.635 12.235,-3.573 h 0.011 c 3.074,-0.66 6.215,-1.196 9.391,-1.593 45.692,-5.832 99.022,14.154 102.084,15.304 15.715,5.343 29.875,6.711 42.083,4.059 11.853,-2.57 19.908,-8.453 25.089,-13.852 3.025,-3.269 8.893,-10.941 9.849,-22.015 0.192,-2.99 0.069,-5.889 -0.296,-8.709 -0.011,-0.077 -0.021,-0.151 -0.032,-0.229 -1.48,-10.901 -6.699,-20.363 -12.218,-27.656 -0.091,-0.113 -13.967,-17.07 -38.44,-23.57 -1.443,-0.381 -2.924,-0.725 -4.441,-1.036 h -0.038 c -22.387,-4.822 -46.63,-4.457 -72.407,1.149 h -0.01 c -7.612,1.652 -14.606,3.623 -20.795,5.631 -5.461,1.81 -10.153,3.765 -14.23,5.747 -4.876,2.368 -8.852,4.77 -11.999,7.003 -4.638,3.273 -7.55,6.172 -9.175,8.031 l 4.215,-0.416 c 0.005,0 2.423,-0.077 5.798,-0.037 2.756,0.021 6.133,0.139 9.359,0.437 0.571,0.053 1.148,0.102 1.706,0.166 -0.582,0.207 -1.221,0.536 -1.822,0.78 m -25.618,92.724 c 0.479,-0.052 0.949,-0.09 1.426,-0.135 -2.541,-2.126 -5.627,-4.905 -8.984,-8.341 -1.231,1.332 -2.495,2.593 -3.788,3.778 -3.379,3.728 -7.115,6.93 -11.339,9.339 7.461,-2.731 15.074,-4.34 22.685,-4.641 m 4.656,-1.558 -0.158,-0.116 0.091,0.162 c 0.021,-0.016 0.046,-0.031 0.067,-0.046 m 65.516,6.664 -0.01,-0.012 c -0.004,-0.002 -0.007,-0.004 -0.009,-0.006 0.005,0.006 0.013,0.012 0.019,0.018 m 46.232,60.37 0.466,-0.427 0.108,-0.473 c -0.179,0.304 -0.379,0.602 -0.574,0.9 m -68.451,52.107 c 0.006,0.037 0.012,0.074 0.012,0.074 0.027,0.044 0.056,0.084 0.084,0.128 -0.033,-0.067 -0.064,-0.134 -0.096,-0.202 m 3.483,-0.733 c 2.715,5.572 6.768,9.681 12.808,11.596 5.207,1.668 9.858,0.547 13.94,-2.937 5.294,-4.511 8.099,-10.55 9.815,-17.125 1.722,-6.614 1.663,-13.372 1.32,-20.12 -0.247,-4.848 -0.96,-9.624 -2.129,-14.341 -0.172,-0.7 -0.478,-1.148 -1.143,-1.467 -0.766,-0.372 -1.512,-0.778 -2.249,-1.197 -12.675,-4.465 -23.922,-0.691 -29.894,2.237 -1.513,0.864 -3.005,1.766 -4.529,2.618 -0.248,0.238 -0.496,0.466 -0.744,0.695 -0.145,0.245 -0.236,0.528 -0.285,0.868 -0.799,5.217 -1.271,10.462 -1.309,17.145 0.097,6.664 0.8,14.618 4.399,22.028 m -41.358,-4.681 c -3.937,-7.004 -3.922,-14.237 -0.252,-21.345 1.17,-2.266 2.991,-3.695 5.232,-4.303 -2.868,-0.825 -5.288,-1.938 -7.138,-2.961 -1.797,0.991 -3.581,1.875 -5.318,2.632 -0.344,1.676 -0.639,3.355 -0.899,5.039 -0.056,0.381 -0.113,0.759 -0.166,1.14 -0.205,1.429 -0.379,2.864 -0.518,4.301 -0.083,0.869 -0.134,1.738 -0.194,2.61 -0.069,1.056 -0.149,2.11 -0.18,3.169 -0.058,2.022 -0.063,4.047 0.031,6.082 0.209,4.423 0.879,8.794 2.811,12.843 1.035,2.194 2.46,4.058 4.408,5.511 2.285,1.728 5.728,1.582 7.68,-0.791 2.393,-2.918 3.826,-6.267 4.463,-9.974 0,-0.009 0,-0.009 0.005,-0.009 0.065,-0.009 0.118,-0.02 0.188,-0.039 -0.037,-0.045 -0.07,-0.096 -0.108,-0.152 -0.026,0.064 -0.052,0.133 -0.08,0.191 h -0.005 v 0.009 c -4.672,1.376 -7.519,0.387 -9.96,-3.953 m 9.231,-75.246 c 0.123,0.504 0.31,1.297 0.338,2.25 0.627,-0.378 1.217,-0.73 1.812,-1.071 1.947,-1.102 1.969,-1.179 1.508,-3.45 -0.097,-0.481 -0.221,-0.966 -0.35,-1.438 -0.027,-0.094 -0.069,-0.201 -0.095,-0.303 -0.114,-0.379 -0.237,-0.762 -0.37,-1.121 -0.027,-0.094 -0.06,-0.169 -0.091,-0.244 -0.152,-0.397 -0.313,-0.794 -0.478,-1.191 -0.022,-0.037 -0.038,-0.075 -0.054,-0.115 -0.193,-0.435 -0.408,-0.875 -0.617,-1.29 h -0.006 v -0.006 c -0.353,-0.694 -0.745,-1.373 -1.147,-2.048 0,-0.011 -0.011,-0.019 -0.017,-0.033 -0.402,-0.659 -0.83,-1.321 -1.27,-1.976 -0.155,-0.228 -0.317,-0.447 -0.478,-0.673 -2.322,-3.656 -5.546,-8.447 -7.846,-10.772 v -0.006 c 0.048,-0.314 0.107,-0.625 0.172,-0.926 0.015,-0.064 0.032,-0.114 0.047,-0.176 0.055,-0.247 0.123,-0.48 0.188,-0.719 0.027,-0.076 0.049,-0.15 0.076,-0.225 0.069,-0.228 0.149,-0.435 0.236,-0.657 0.026,-0.062 0.053,-0.137 0.08,-0.211 0.112,-0.266 0.237,-0.543 0.37,-0.808 0.027,-0.056 0.058,-0.126 0.086,-0.182 0.119,-0.215 0.251,-0.434 0.38,-0.644 0.049,-0.075 0.102,-0.158 0.157,-0.233 0.128,-0.202 0.262,-0.389 0.401,-0.58 0.07,-0.075 0.134,-0.168 0.21,-0.245 0.139,-0.171 0.289,-0.353 0.439,-0.511 0.077,-0.086 0.161,-0.162 0.242,-0.252 0.161,-0.151 0.322,-0.32 0.483,-0.458 0.068,-0.058 0.139,-0.108 0.203,-0.164 0.317,-0.266 0.649,-0.509 1.003,-0.738 0.146,-0.107 0.29,-0.201 0.441,-0.295 0.149,-0.084 0.3,-0.171 0.46,-0.252 0.166,-0.093 0.344,-0.183 0.521,-0.271 0.155,-0.074 0.316,-0.152 0.472,-0.209 0.199,-0.094 0.396,-0.168 0.595,-0.244 0.15,-0.056 0.317,-0.115 0.477,-0.172 0.221,-0.074 0.451,-0.149 0.676,-0.206 0.156,-0.056 0.311,-0.097 0.472,-0.134 0.262,-0.076 0.532,-0.131 0.81,-0.187 0.134,-0.02 0.268,-0.057 0.407,-0.077 0.419,-0.074 0.842,-0.152 1.283,-0.189 8.817,-0.994 17.168,1.003 25.465,3.572 10.84,3.344 20.285,8.951 28.174,17.134 1.607,1.662 3.059,3.433 4.442,5.253 5.487,8.617 6.919,14.345 6.962,17.914 -6.539,-6.474 -14.484,-10.357 -23.455,-12.29 -12.996,-2.803 -25.133,0.037 -36.804,5.832 -6.78,3.35 -12.475,8.145 -18.028,13.165 -0.277,0.252 -0.56,0.507 -0.839,0.759 -1.481,1.305 -2.942,2.433 -4.376,3.414 -6.471,4.43 -12.375,5.777 -16.943,5.905 -3.16,-0.048 -6.275,-0.606 -9.361,-1.588 -1.842,-0.592 -3.671,-1.257 -5.545,-1.698 -1.614,-0.38 -3.26,-0.598 -4.985,-0.436 -3.031,0.295 -5.808,1.177 -7.777,3.639 -2.204,2.754 -2.537,6.449 -0.805,9.461 1.481,1.499 3.514,2.747 6.239,3.905 2.311,0.97 4.76,1.687 7.328,2.224 1.577,0.33 3.188,0.606 4.871,0.785 1.217,0.155 2.357,0.174 3.525,0.238 0.747,0.043 1.489,0.078 2.223,0.097 h 0.013 c 0.734,0.018 1.46,0.019 2.169,-0.008 12.724,-0.472 22.553,-6.161 31.71,-13.202 1.278,-1.076 2.579,-2.111 3.914,-3.101 0.128,-0.104 0.257,-0.201 0.386,-0.306 0.027,-0.021 0.054,-0.037 0.081,-0.058 0.016,-0.013 0.032,-0.024 0.051,-0.038 2.716,-2.191 5.697,-3.784 8.693,-4.966 0.005,-0.003 0.008,-0.003 0.014,-0.006 0.008,-0.002 0.018,-0.008 0.027,-0.01 0.778,-0.306 1.553,-0.585 2.328,-0.835 0.002,-0.001 0.004,-0.001 0.006,-0.002 3.326,-1.154 6.762,-1.901 10.41,-2.092 5.044,-0.458 8.618,-0.072 8.618,-0.072 -2.148,0.399 -4.396,1.178 -6.644,2.164 -0.285,0.125 -0.57,0.241 -0.854,0.372 -0.574,0.263 -1.145,0.548 -1.716,0.837 -9.944,5.053 -19.175,13.511 -19.175,13.511 -2.008,2.13 -4.141,3.983 -6.325,5.65 7.913,4.764 18.19,1.647 24.979,-1.5 2.44,-1.26 4.824,-2.61 7.194,-3.985 0.002,-0.002 0.013,-0.01 0.013,-0.01 16.467,-12.723 29.134,-10.418 36.539,-6.652 0.476,0.195 0.943,0.399 1.394,0.613 0.038,0.016 0.065,0.014 0.103,0.03 2.188,1.198 4.408,2.33 6.762,3.218 9.67,3.633 19.871,-2.067 22.135,-12.084 0.056,-0.245 0.11,-0.49 0.156,-0.74 1.829,-10.003 -3.963,-18.797 -13.724,-21.838 -0.768,-0.233 -1.573,-0.348 -2.333,-0.605 -1.015,-0.334 -1.975,-0.411 -2.892,-0.133 l -1.609,3.949 -4.146,-6.456 c -5.937,-7.179 -12.325,-13.926 -19.969,-19.399 -9.772,-6.98 -20.703,-11.293 -32.336,-13.984 -4.656,-1.071 -9.386,-1.475 -14.149,-1.133 -6.758,0.49 -12.61,2.751 -16.461,8.729 -1.598,2.484 -2.407,5.248 -3.009,8.088 8.073,6.216 13.024,13.492 15.11,22.221 M 33.521,61.873 C 25.306,65.909 16.73,68.304 8.04,68.996 -1.963,69.809 -12.244,68.505 -22.348,65.161 -33.098,61.607 -42.414,55.966 -50.11,50.904 -56.386,46.775 -62.468,42.32 -68.389,37.987 c -3.567,-2.615 -7.262,-5.316 -10.91,-7.88 -6.629,-4.661 -13.162,-9.078 -20.23,-11.93 -4.286,-1.73 -7.848,-2.253 -11.237,-1.636 -4.42,0.793 -7.537,3.236 -10.116,7.935 -2.311,4.207 -5.684,8.228 -6.446,15.295 -0.065,0.568 -0.038,0.908 -0.005,1.096 0.863,1.178 3.684,3.368 4.451,4.583 3.27,4.436 6.158,9.095 8.688,13.954 0.622,1.143 0.969,1.878 1.055,2.065 6.25,12.675 10.028,26.704 11.254,41.912 0.945,11.634 -0.154,23.369 -3.27,34.877 -1.133,4.175 -2.495,8.219 -4.045,12.03 l 0.107,0.158 -1.678,3.457 c -1.443,3.142 -3.063,6.198 -4.774,8.981 -0.751,1.305 -1.491,2.54 -2.21,3.693 15.736,11.483 12.482,33.186 12.443,33.419 l -2.397,14.898 -11.923,-9.252 c -1.689,-1.317 -7.815,-4.38 -28.094,-4.38 -12.117,0 -24.114,1.14 -28.839,1.639 -6.882,1.448 -13.961,2.172 -21.031,2.172 -0.746,0 -1.486,0 -2.199,-0.019 h -0.144 c -0.108,0 -0.215,-0.011 -0.301,-0.018 -7.553,-0.188 -15.266,-1.202 -22.929,-3.017 -19.888,-4.718 -32.767,-13.165 -33.303,-13.525 l -4.618,-4.036 c -10.357,-8.373 -17.833,-19.853 -22.221,-34.109 -0.434,-1.41 -0.827,-2.856 -1.198,-4.322 -1.623,-6.398 -2.661,-13.35 -3.146,-21.13 -0.402,-6.531 -0.273,-13.486 0.409,-21.894 0.1,-1.28 0.24,-2.54 0.391,-3.778 -0.607,0.023 -1.202,0.042 -1.797,0.042 h -0.113 c -3.838,0 -7.449,-0.303 -10.891,-0.888 -4.073,-0.691 -7.906,-1.783 -11.55,-3.319 -3.475,-1.454 -8.496,-3.975 -12.046,-8.987 l -0.167,-0.234 -0.107,-0.283 c -0.45,-1.178 -4.264,-11.749 0.612,-20.452 2.923,-5.224 8.275,-8.605 15.913,-10.021 l 0.129,-0.032 c 4.73,-0.625 9.751,0.024 14.856,1.895 3.697,1.349 8.169,2.709 12.465,2.368 1.492,-0.111 2.038,-0.383 2.574,-0.881 l 17.381,-9.943 c -1.695,-5.519 -8.193,-13.268 -13.652,-17.494 -2.055,-0.542 -3.294,-1.77 -3.867,-2.495 -1.481,-1.826 -1.963,-4.155 -1.405,-6.739 0.02,-0.088 0.02,-0.168 0.037,-0.257 l 0.081,-0.601 c 0.063,-0.44 0.154,-0.976 0.252,-1.566 -16,2.77 -31.995,11.96 -45.376,26.152 -12.598,13.353 -19.416,27.373 -19.481,27.507 l -14.346,30.253 -2.656,-33.386 c -0.707,-8.929 -0.519,-17.447 0.553,-25.382 l -25.776,21.145 3.942,-23.513 c 1.115,-6.682 3.797,-14.758 7.98,-24.075 l -11.697,5.625 5.03,-18.815 c 2.652,-9.915 6.062,-19.733 10.124,-29.304 0.899,-2.119 1.842,-4.221 2.808,-6.313 -5.46,-14.144 -8.649,-30.507 -8.649,-48.017 0,-35.895 13.259,-65.61 33.662,-80.413 9.482,-8.496 20.33,-13.097 31.759,-13.097 8.169,0 16.043,2.296 23.445,6.812 2.646,-2.703 5.516,-5.225 8.492,-7.639 5.072,-4.107 10.551,-7.839 16.496,-11.025 16.332,-8.775 34.959,-14.301 58.639,-17.379 8.518,-1.105 16.943,-1.57 23.428,-1.834 l 0.162,-0.15 2.574,-0.059 c 3.105,-0.076 6.183,-0.113 9.166,-0.113 h 0.01 c 26.244,0 50.16,2.617 71.077,7.787 l 0.102,0.016 c 2.049,0.607 4.382,1.228 6.952,1.845 l 0.08,0.034 c 2.381,0.681 4.323,1.25 6.115,1.828 6.891,2.199 13.553,4.763 19.796,7.617 l 0.075,0.053 c 50.809,25.638 66.508,80.125 69.152,90.828 l 0.096,0.397 c 0.048,0.189 0.097,0.377 0.14,0.566 0.643,2.859 1.249,5.782 1.791,8.679 4.414,23.803 4.805,46.541 4.36,61.452 0.06,1.743 0.08,5.32 0.102,9.453 0.022,4.65 0.058,11.024 0.182,12.768 0.612,8.98 2.022,16.836 4.308,23.984 3.261,10.173 8.255,18.336 15.274,24.968 0.134,0.096 0.323,0.209 0.499,0.311 0.826,0.523 2.076,1.29 3.257,2.583 l 5.926,6.505 z" /></g><g
           transform="translate(224.9698,432.2735)"
           id="g116"><path
             id="path118"
             style="fill:#231f20;fill-opacity:1;fill-rule:nonzero;stroke:none"
             d="M 0,0 C 5.706,0 10.331,9.015 10.331,20.135 10.331,31.254 5.706,40.269 0,40.269 -5.705,40.269 -10.329,31.254 -10.329,20.135 -10.329,9.015 -5.705,0 0,0" /></g><g
           transform="translate(63.5831,84.6778)"
           id="g120"><path
             id="path122"
             style="fill:#231f20;fill-opacity:1;fill-rule:nonzero;stroke:none"
             d="M 0,0 C 0,0.32 0.096,0.57 0.299,0.785 0.492,0.99 0.725,1.086 1.03,1.086 h 6.491 c 1.293,0 2.68,-0.16 4.12,-0.477 1.359,-0.306 2.617,-0.91 3.742,-1.795 1.081,-0.843 2.012,-2.107 2.763,-3.746 0.725,-1.662 1.094,-3.855 1.094,-6.519 0,-2.701 -0.367,-4.873 -1.091,-6.457 -0.754,-1.649 -1.686,-2.912 -2.777,-3.764 -1.122,-0.92 -2.36,-1.539 -3.673,-1.84 C 10.257,-23.83 8.852,-23.99 7.521,-23.99 H 1.03 c -0.305,0 -0.538,0.095 -0.732,0.302 C 0.096,-23.473 0,-23.225 0,-22.904 Z m -8.848,-29.668 c 0,-0.631 0.212,-1.174 0.629,-1.615 0.426,-0.453 0.969,-0.682 1.614,-0.682 H 7.467 c 2.856,0 5.547,0.434 7.995,1.287 2.394,0.823 4.575,2.114 6.483,3.832 2.062,1.877 3.602,4.139 4.573,6.715 0.521,1.305 0.918,2.692 1.179,4.125 0.259,1.43 0.391,2.983 0.391,4.608 0,3.078 -0.527,6.013 -1.57,8.732 -1.01,2.545 -2.547,4.785 -4.573,6.662 C 18.174,7.43 13.303,9.17 7.467,9.17 H -6.605 C -7.25,9.17 -7.793,8.941 -8.217,8.49 -8.635,8.049 -8.848,7.504 -8.848,6.873 Z" /></g><g
           transform="translate(126.5147,93.793)"
           id="g124"><path
             id="path126"
             style="fill:#231f20;fill-opacity:1;fill-rule:nonzero;stroke:none"
             d="M 0,0 C -0.638,0 -1.186,-0.225 -1.628,-0.668 -2.071,-1.113 -2.297,-1.66 -2.297,-2.297 V -24.33 c 0,-1.897 -0.308,-3.473 -0.917,-4.691 -0.611,-1.221 -1.381,-2.198 -2.305,-2.918 -0.867,-0.733 -1.826,-1.221 -2.863,-1.457 -1.109,-0.276 -2.051,-0.418 -2.799,-0.418 -0.409,0 -0.847,0.035 -1.3,0.103 -0.473,0.07 -0.995,0.176 -1.557,0.316 -0.964,0.233 -1.932,0.727 -2.859,1.456 -0.879,0.742 -1.637,1.726 -2.249,2.918 -0.609,1.218 -0.918,2.796 -0.918,4.691 v 22.033 c 0,0.637 -0.225,1.184 -0.668,1.629 C -21.176,-0.225 -21.724,0 -22.361,0 h -4.308 c -0.602,0 -1.132,-0.225 -1.574,-0.668 -0.444,-0.445 -0.669,-0.992 -0.669,-1.629 v -22.088 c 0,-2.646 0.418,-5.052 1.24,-7.144 0.828,-2.147 2.053,-4.002 3.628,-5.502 1.473,-1.471 3.36,-2.657 5.607,-3.516 2.099,-0.824 4.541,-1.242 7.256,-1.242 2.715,0 5.174,0.418 7.311,1.242 2.211,0.859 4.096,2.043 5.607,3.516 1.543,1.543 2.745,3.394 3.575,5.506 0.411,1.084 0.724,2.23 0.931,3.41 0.204,1.178 0.309,2.431 0.309,3.73 v 22.088 c 0,0.637 -0.226,1.184 -0.668,1.629 C 5.439,-0.225 4.892,0 4.254,0 Z" /></g><g
           transform="translate(144.6211,88.2618)"
           id="g128"><path
             id="path130"
             style="fill:#231f20;fill-opacity:1;fill-rule:nonzero;stroke:none"
             d="m 0,0 c -1.895,-1.969 -3.422,-4.248 -4.537,-6.777 -1.119,-2.575 -1.687,-5.354 -1.687,-8.258 0,-2.906 0.568,-5.686 1.687,-8.26 1.116,-2.568 2.645,-4.832 4.545,-6.732 1.935,-1.936 4.219,-3.483 6.786,-4.6 2.575,-1.119 5.352,-1.686 8.259,-1.686 1.898,0 3.823,0.264 5.726,0.786 0.931,0.261 1.838,0.582 2.697,0.955 0.857,0.373 1.69,0.81 2.461,1.285 1.68,0.973 3.159,2.127 4.379,3.424 0.454,0.453 0.882,0.939 1.277,1.449 0.387,0.496 0.764,1.002 1.151,1.545 0.354,0.556 0.431,1.154 0.222,1.732 -0.205,0.563 -0.612,0.975 -1.214,1.227 l -4.015,1.627 c -0.53,0.24 -1.128,0.269 -1.758,0.084 -0.598,-0.178 -1.085,-0.494 -1.452,-0.94 -0.18,-0.181 -0.361,-0.371 -0.542,-0.57 -0.174,-0.191 -0.35,-0.377 -0.526,-0.553 -0.383,-0.383 -0.782,-0.746 -1.184,-1.078 -0.392,-0.324 -0.819,-0.629 -1.268,-0.906 -0.444,-0.274 -0.912,-0.516 -1.394,-0.723 -0.498,-0.213 -1,-0.41 -1.467,-0.576 -0.992,-0.309 -2.033,-0.465 -3.093,-0.465 -1.754,0 -3.389,0.365 -4.887,1.096 -1.51,0.65 -2.814,1.59 -3.883,2.799 -1.113,1.215 -2.012,2.609 -2.672,4.138 -0.655,1.514 -0.986,3.178 -0.986,4.942 0,1.726 0.332,3.39 0.986,4.939 0.66,1.53 1.559,2.922 2.672,4.141 1.071,1.174 2.383,2.137 3.89,2.853 1.551,0.69 3.192,1.039 4.88,1.039 1.059,0 2.099,-0.156 3.068,-0.455 0.502,-0.179 1.004,-0.377 1.492,-0.586 0.475,-0.203 0.945,-0.447 1.393,-0.722 0.457,-0.283 0.889,-0.582 1.281,-0.889 0.395,-0.308 0.79,-0.66 1.171,-1.041 0.177,-0.176 0.352,-0.361 0.526,-0.553 0.182,-0.199 0.363,-0.39 0.544,-0.572 0.37,-0.451 0.865,-0.758 1.471,-0.916 0.623,-0.162 1.23,-0.115 1.717,0.108 l 4.041,1.636 c 0.593,0.248 0.999,0.649 1.207,1.192 0.147,0.39 0.229,1.004 -0.227,1.722 -0.671,1.006 -1.482,2.008 -2.422,2.985 -0.63,0.631 -1.318,1.242 -2.042,1.818 C 27.549,2.24 26.766,2.777 25.943,3.266 24.378,4.195 22.641,4.934 20.776,5.455 18.876,5.977 16.951,6.24 15.053,6.24 12.146,6.24 9.367,5.674 6.791,4.553 4.265,3.438 1.985,1.912 0,0" /></g><g
           transform="translate(215.9415,91.5)"
           id="g132"><path
             id="path134"
             style="fill:#231f20;fill-opacity:1;fill-rule:nonzero;stroke:none"
             d="M 0,0 C 0.559,0.701 0.479,1.242 0.312,1.576 0.148,1.904 -0.234,2.293 -1.129,2.293 h -6.054 c -0.563,0 -1.151,-0.15 -1.743,-0.445 C -9.512,1.555 -9.984,1.187 -10.332,0.752 L -24.084,-16.805 V 0.051 c 0,0.636 -0.225,1.185 -0.668,1.627 -0.443,0.445 -0.99,0.67 -1.628,0.67 h -4.308 c -0.646,0 -1.188,-0.229 -1.614,-0.68 -0.417,-0.441 -0.63,-0.986 -0.63,-1.617 V -36.49 c 0,-0.631 0.213,-1.174 0.629,-1.615 0.427,-0.454 0.969,-0.682 1.615,-0.682 h 4.308 c 0.638,0 1.185,0.224 1.628,0.668 0.443,0.445 0.668,0.992 0.668,1.629 v 14.781 c 0,0.043 0.002,0.082 0.004,0.117 0.012,-0.013 0.023,-0.025 0.036,-0.039 l 14.479,-15.674 c 0.352,-0.441 0.852,-0.802 1.487,-1.078 0.619,-0.267 1.213,-0.404 1.768,-0.404 h 6.763 c 0.93,0 1.28,0.404 1.411,0.742 0.123,0.32 0.15,0.832 -0.423,1.477 l -15.722,16.869 c -0.219,0.22 -0.327,0.48 -0.34,0.82 -0.013,0.344 0.076,0.631 0.277,0.881 z" /></g><g
           transform="translate(230.7374,52.7129)"
           id="g136"><path
             id="path138"
             style="fill:#231f20;fill-opacity:1;fill-rule:nonzero;stroke:none"
             d="M 0,0 C 0.638,0 1.186,0.225 1.629,0.668 2.072,1.113 2.296,1.66 2.296,2.297 v 36.486 c 0,0.637 -0.224,1.184 -0.667,1.629 C 1.186,40.855 0.638,41.08 0,41.08 h -4.309 c -0.635,0 -1.194,-0.236 -1.613,-0.68 -0.417,-0.443 -0.63,-0.986 -0.63,-1.617 V 2.297 c 0,-0.631 0.213,-1.174 0.629,-1.615 C -5.503,0.236 -4.944,0 -4.309,0 Z" /></g><g
           transform="translate(250.7999,85.5586)"
           id="g140"><path
             id="path142"
             style="fill:#231f20;fill-opacity:1;fill-rule:nonzero;stroke:none"
             d="M 0,0 C 0.214,0.215 0.459,0.314 0.771,0.314 H 19.15 c 0.639,0 1.186,0.225 1.629,0.668 0.444,0.444 0.668,0.991 0.668,1.629 v 3.381 c 0,0.637 -0.224,1.186 -0.668,1.627 -0.443,0.445 -0.99,0.67 -1.629,0.67 H -6.864 C -7.501,8.289 -8.05,8.064 -8.492,7.621 -8.937,7.178 -9.161,6.629 -9.161,5.992 v -36.541 c 0,-0.637 0.224,-1.183 0.668,-1.629 0.443,-0.443 0.992,-0.668 1.629,-0.668 H 19.15 c 0.639,0 1.186,0.225 1.629,0.668 0.444,0.446 0.668,0.992 0.668,1.629 v 3.49 c 0,0.637 -0.224,1.186 -0.668,1.629 -0.443,0.444 -0.992,0.668 -1.629,0.668 H 0.771 c -0.312,0 -0.557,0.1 -0.771,0.315 -0.214,0.213 -0.313,0.457 -0.313,0.769 v 6 c 0,0.313 0.099,0.559 0.313,0.772 0.214,0.213 0.459,0.312 0.771,0.312 h 15.925 c 0.638,0 1.186,0.227 1.629,0.67 0.444,0.442 0.667,0.99 0.667,1.629 v 3.545 c 0,0.635 -0.222,1.184 -0.667,1.629 -0.444,0.443 -0.992,0.668 -1.629,0.668 H 0.771 c -0.312,0 -0.557,0.099 -0.771,0.312 -0.214,0.213 -0.313,0.459 -0.313,0.772 v 6.598 c 0,0.312 0.099,0.556 0.313,0.771" /></g><g
           transform="translate(275.4668,93.1797)"
           id="g144"><path
             id="path146"
             style="fill:#231f20;fill-opacity:1;fill-rule:nonzero;stroke:none"
             d="M 0,0 C -0.443,-0.443 -0.669,-0.992 -0.669,-1.629 V -5.01 c 0,-0.636 0.225,-1.185 0.668,-1.629 0.444,-0.443 0.992,-0.668 1.629,-0.668 H 9.7 c 0.313,0 0.557,-0.099 0.772,-0.314 0.213,-0.213 0.312,-0.459 0.312,-0.772 V -38.17 c 0,-0.637 0.226,-1.184 0.669,-1.629 0.443,-0.443 0.991,-0.668 1.628,-0.668 h 4.254 c 0.637,0 1.186,0.225 1.628,0.668 0.444,0.445 0.67,0.992 0.67,1.629 v 29.777 c 0,0.313 0.099,0.557 0.313,0.774 0.214,0.213 0.458,0.312 0.771,0.312 h 8.017 c 0.637,0 1.185,0.225 1.629,0.668 0.444,0.444 0.667,0.993 0.667,1.629 v 3.381 c 0,0.637 -0.223,1.186 -0.667,1.627 -0.444,0.445 -0.992,0.67 -1.629,0.67 H 1.628 C 0.991,0.668 0.443,0.443 0,0" /></g><g
           transform="translate(395.6387,93.2188)"
           id="g148"><path
             id="path150"
             style="fill:#231f20;fill-opacity:1;fill-rule:nonzero;stroke:none"
             d="m 0,0 c -0.543,-0.387 -0.911,-0.863 -1.091,-1.406 l -6.878,-18.778 c -0.018,-0.054 -0.037,-0.101 -0.053,-0.138 -0.021,0.035 -0.045,0.08 -0.071,0.136 l -8.675,19.75 c -0.281,0.618 -0.835,0.956 -1.56,0.956 -0.727,0 -1.281,-0.338 -1.565,-0.961 l -8.669,-19.682 c -0.027,-0.061 -0.052,-0.107 -0.073,-0.143 -0.018,0.039 -0.037,0.088 -0.057,0.151 l -6.704,18.693 c -0.187,0.559 -0.556,1.037 -1.098,1.422 -0.54,0.381 -1.116,0.574 -1.713,0.574 h -4.747 c -0.844,0 -1.297,-0.392 -1.531,-0.72 -0.238,-0.336 -0.45,-0.905 -0.128,-1.674 l 13.59,-37.547 c 0.276,-0.664 0.813,-1.029 1.514,-1.029 0.672,0 1.219,0.324 1.562,0.955 l 9.497,21.015 c 0.07,0.17 0.13,0.244 0.138,0.274 0.032,-0.034 0.094,-0.118 0.166,-0.289 l 9.437,-21.164 c 0.279,-0.616 0.824,-0.956 1.533,-0.956 0.718,0 1.265,0.366 1.552,1.053 L 8.108,-1.846 C 8.442,-1.049 8.228,-0.482 7.99,-0.145 7.759,0.182 7.305,0.574 6.459,0.574 H 1.714 C 1.117,0.574 0.541,0.381 0,0" /></g><g
           transform="translate(441.6934,93.793)"
           id="g152"><path
             id="path154"
             style="fill:#231f20;fill-opacity:1;fill-rule:nonzero;stroke:none"
             d="M 0,0 H -4.255 C -4.892,0 -5.44,-0.225 -5.884,-0.668 -6.326,-1.113 -6.552,-1.66 -6.552,-2.297 v -20.724 c 0,-0.124 -0.01,-0.209 -0.02,-0.266 -0.051,0.031 -0.121,0.08 -0.211,0.16 L -30.739,-0.48 c -0.469,0.418 -1.051,0.57 -1.695,0.441 -0.743,-0.148 -1.169,-0.674 -1.169,-1.44 v -37.304 c 0,-0.637 0.225,-1.186 0.668,-1.629 0.444,-0.443 0.973,-0.668 1.576,-0.668 h 4.307 c 0.637,0 1.186,0.225 1.629,0.668 0.444,0.445 0.669,0.992 0.669,1.629 v 20.344 c 0,0.138 0.013,0.23 0.025,0.287 0.049,-0.022 0.119,-0.061 0.209,-0.133 l 23.922,-22.279 c 0.502,-0.403 1.088,-0.549 1.725,-0.422 0.743,0.148 1.169,0.672 1.169,1.439 v 37.25 c 0,0.637 -0.225,1.184 -0.668,1.629 C 1.186,-0.225 0.638,0 0,0" /></g><g
           transform="translate(328.9336,63.043)"
           id="g156"><path
             id="path158"
             style="fill:#231f20;fill-opacity:1;fill-rule:nonzero;stroke:none"
             d="m 0,0 c -5.602,0 -10.144,4.543 -10.144,10.145 0,5.603 4.542,10.142 10.144,10.142 5.602,0 10.144,-4.539 10.144,-10.142 C 10.144,4.543 5.602,0 0,0 m 13.088,25.898 c -0.015,0.774 -0.274,1.405 -0.931,1.797 -1.041,0.625 -2.085,1.264 -3.186,1.774 -0.437,0.203 -1.138,0.277 -1.524,0.066 -0.741,-0.414 -1.354,-0.271 -2.049,-0.023 -0.412,0.148 -0.861,0.179 -1.269,0.334 -0.24,0.088 -0.503,0.265 -0.631,0.478 -0.432,0.711 -1.023,1.112 -1.849,1.121 -1.071,0.02 -2.144,0.02 -3.214,-0.007 -0.889,-0.024 -1.597,-0.383 -2.02,-1.215 -0.159,-0.317 -3.029,-1.135 -3.348,-0.983 -0.066,0.03 -0.12,0.084 -0.182,0.125 -0.655,0.385 -1.337,0.477 -2.016,0.096 -1.057,-0.596 -2.137,-1.174 -3.13,-1.869 -0.396,-0.272 -0.828,-0.848 -0.825,-1.283 0.005,-0.838 -0.438,-1.274 -0.967,-1.748 -0.324,-0.291 -0.581,-0.663 -0.924,-0.93 -0.218,-0.18 -0.527,-0.328 -0.798,-0.336 -0.74,-0.012 -1.379,-0.221 -1.763,-0.852 -0.668,-1.101 -1.329,-2.214 -1.873,-3.379 -0.193,-0.404 -0.193,-1.058 -0.006,-1.459 0.274,-0.593 0.344,-1.115 0.159,-1.709 -0.303,-0.976 -0.205,-2.125 -1.373,-2.716 -0.291,-0.145 -0.502,-0.682 -0.529,-1.057 -0.092,-1.238 -0.124,-2.484 -0.102,-3.719 0.014,-0.779 0.409,-1.379 1.132,-1.75 0.513,-0.261 1.258,-3.078 0.957,-3.576 -0.419,-0.678 -0.474,-1.379 -0.098,-2.076 0.557,-1.031 1.1,-2.072 1.753,-3.035 0.258,-0.379 0.815,-0.842 1.199,-0.809 1.113,0.092 1.594,-0.654 2.184,-1.303 0.197,-0.214 0.426,-0.404 0.582,-0.648 0.167,-0.26 0.356,-0.566 0.376,-0.863 0.049,-0.705 0.29,-1.299 0.883,-1.67 1.031,-0.653 2.077,-1.278 3.144,-1.86 0.664,-0.361 1.364,-0.302 2.023,0.088 0.401,0.241 3.253,-0.404 3.512,-0.785 0.068,-0.101 0.091,-0.246 0.179,-0.312 0.466,-0.323 0.929,-0.834 1.432,-0.885 1.3,-0.131 2.628,-0.109 3.934,-0.027 0.433,0.021 1.059,0.302 1.223,0.648 0.412,0.855 1.135,0.953 1.892,1.119 0.353,0.074 0.695,0.242 1.052,0.287 0.307,0.035 0.664,0.041 0.936,-0.09 0.66,-0.308 1.321,-0.41 1.966,-0.064 1.075,0.561 2.156,1.133 3.161,1.812 0.397,0.27 0.828,0.842 0.832,1.274 0.008,0.848 0.406,1.328 0.973,1.82 0.367,0.313 0.663,0.711 1.014,1.047 0.183,0.172 0.419,0.287 0.457,0.311 1,-0.036 1.621,0.244 2.002,0.869 0.636,1.033 1.272,2.08 1.783,3.178 0.202,0.441 0.264,1.134 0.05,1.527 -0.391,0.719 -0.272,1.318 -0.04,1.99 0.143,0.416 0.175,0.873 0.352,1.266 0.137,0.322 0.36,0.672 0.646,0.842 0.596,0.349 1.003,0.791 1.015,1.492 0.021,1.265 0.06,2.535 -0.043,3.795 -0.042,0.476 -0.344,1.127 -0.727,1.338 -0.722,0.392 -0.834,0.994 -0.989,1.648 -0.106,0.451 -0.289,0.885 -0.359,1.336 -0.048,0.279 -0.019,0.619 0.105,0.863 0.332,0.658 0.421,1.324 0.074,1.967 -0.593,1.088 -1.203,2.174 -1.91,3.189 -0.263,0.381 -0.806,0.774 -1.235,0.784 -0.848,0.029 -1.306,0.49 -1.793,1.039 -0.29,0.33 -0.658,0.59 -0.93,0.927 -0.18,0.223 -0.343,0.524 -0.349,0.791" /></g><g
           transform="translate(443.3799,116.584)"
           id="g160"><path
             id="path162"
             style="fill:#231f20;fill-opacity:1;fill-rule:nonzero;stroke:none"
             d="m 0,0 h -386.786 c -2.1,0 -3.801,-1.6 -3.801,-3.574 0,-1.973 1.701,-3.574 3.801,-3.574 H 0 c 2.1,0 3.8,1.601 3.8,3.574 C 3.8,-1.6 2.1,0 0,0" /></g><g
           transform="translate(442.7559,37.6035)"
           id="g164"><path
             id="path166"
             style="fill:#231f20;fill-opacity:1;fill-rule:nonzero;stroke:none"
             d="m 0,0 h -386.786 c -2.1,0 -3.801,-1.6 -3.801,-3.574 0,-1.973 1.701,-3.574 3.801,-3.574 H 0 c 2.1,0 3.8,1.601 3.8,3.574 C 3.8,-1.6 2.1,0 0,0" /></g></g></g><g
       id="g168"><g
         clip-path="url(#clipPath174)"
         id="g170"><g
           transform="translate(224.9698,472.5425)"
           id="g176"><path
             id="path178"
             style="fill:#ffffff;fill-opacity:1;fill-rule:nonzero;stroke:none"
             d="m 0,0 c 5.706,0 10.331,-9.015 10.331,-20.134 0,-11.12 -4.625,-20.135 -10.331,-20.135 -5.705,0 -10.329,9.015 -10.329,20.135 C -10.329,-9.015 -5.705,0 0,0 m -25.33,-39.081 c 0.248,-0.229 0.496,-0.457 0.744,-0.695 1.524,-0.851 3.016,-1.754 4.529,-2.618 5.972,-2.928 17.219,-6.702 29.894,-2.237 0.737,0.42 1.483,0.825 2.249,1.197 0.665,0.319 0.971,0.767 1.143,1.467 1.168,4.717 1.882,9.493 2.128,14.342 0.344,6.747 0.403,13.505 -1.319,20.119 -1.716,6.575 -4.521,12.614 -9.815,17.125 -4.082,3.484 -8.733,4.605 -13.94,2.937 -6.04,-1.915 -10.094,-6.024 -12.808,-11.596 -3.599,-7.41 -4.302,-15.364 -4.399,-22.028 0.038,-6.683 0.51,-11.928 1.309,-17.145 0.049,-0.34 0.139,-0.622 0.285,-0.868" /></g><g
           transform="translate(151.834,455.9341)"
           id="g180"><path
             id="path182"
             style="fill:#ffffff;fill-opacity:1;fill-rule:nonzero;stroke:none"
             d="m 0,0 c 0.06,-0.871 0.11,-1.741 0.193,-2.609 0.14,-1.438 0.314,-2.872 0.519,-4.302 0.053,-0.381 0.109,-0.759 0.166,-1.139 0.26,-1.685 0.555,-3.364 0.898,-5.04 1.738,-0.756 3.522,-1.641 5.319,-2.631 1.849,1.022 4.269,2.136 7.137,2.96 -2.241,0.609 -4.061,2.038 -5.231,4.303 -3.67,7.109 -3.686,14.342 0.252,21.346 2.44,4.34 5.288,5.329 9.96,3.953 -0.638,3.706 -2.07,7.056 -4.463,9.973 -1.952,2.373 -5.396,2.519 -7.681,0.792 C 5.122,26.152 3.696,24.289 2.661,22.095 0.729,18.045 0.06,13.674 -0.149,9.252 -0.243,7.217 -0.238,5.191 -0.181,3.17 -0.149,2.11 -0.069,1.057 0,0" /></g></g></g></g></svg>