<svg viewBox="0 -44 487.664 487" xmlns="http://www.w3.org/2000/svg"><path d="m487.664062 264.332031-5.25-13.097656c-10.335937-25.824219-32.621093-44.550781-59.75-50.414063-16.664062 37.953126-47.472656 63.511719-82.832031 63.511719-24.59375 0-46.945312-12.433593-63.9375-32.703125-23.453125 20.007813-57.742187 32.703125-96.0625 32.703125-54.816406 0-101.449219-25.886719-119.6875-62.214843-24.886719 6.957031-45.175781 24.863281-54.886719 49.117187l-5.257812 13.097656h31.9375c-2.699219 8.351563-4.105469 17.128907-4.105469 25.886719v29.058594l16.472657-10.976563c8.832031-5.878906 18.734374-9.679687 29.101562-11.207031-3.703125 15.445312-5.574219 31.335938-5.574219 47.238281v19.3125l19.769531-19.769531c7.320313-7.320312 15.8125-13.480469 25.039063-18.191406-1.578125 12.457031-.375 25.242187 3.605469 37.175781l3.625 10.878906 30.21875-24.167969c7.4375-5.949218 16.191406-10.039062 25.453125-11.964843-2.445313 7.964843-3.710938 16.292969-3.710938 24.613281v30.761719l45.847657-36.679688 26.152343 43.574219 26.152344-43.574219 45.847656 36.679688v-30.761719c0-8.320312-1.265625-16.648438-3.710937-24.613281 9.253906 1.925781 18.015625 6.015625 25.453125 11.964843l30.21875 24.167969 3.621093-10.878906c3.984376-11.933594 5.1875-24.726563 3.609376-37.175781 9.222656 4.71875 17.71875 10.871094 25.039062 18.191406l19.769531 19.769531v-19.3125c0-15.902343-1.871093-31.792969-5.566406-47.238281 10.367187 1.527344 20.269531 5.328125 29.101563 11.207031l16.464843 10.976563v-29.058594c0-8.765625-1.40625-17.535156-4.113281-25.886719zm0 0" fill="#f0bc5e"/><path d="m339.832031.332031c-41.222656 0-76.816406 31.609375-93.632812 77.191407-20.222657-8.648438-42.96875-13.191407-66.367188-13.191407-74.992187 0-136 46.65625-136 104s61.007813 104 136 104c35.648438 0 69.761719-10.886719 95.105469-29.894531 17.804688 18.65625 40.351562 29.894531 64.894531 29.894531 57.34375 0 104-61.007812 104-136 0-74.992187-46.65625-136-104-136zm-280 168c0-48.519531 53.832031-88 120-88 21.816407 0 42.929688 4.359375 61.535157 12.574219-3.535157 13.65625-5.535157 28.226562-5.535157 43.425781 0 36.367188 11.039063 69.375 28.878907 93.800781-22.535157 16.664063-52.941407 26.199219-84.878907 26.199219-66.167969 0-120-39.480469-120-88zm280 88c-48.519531 0-88-53.832031-88-120s39.480469-120 88-120 88 53.832031 88 120-39.480469 120-88 120zm0 0"/><path d="m377.152344 47.667969-10.632813 11.953125c18.082031 16.085937 29.3125 45.480468 29.3125 76.710937h16c0-35.664062-13.289062-69.632812-34.679687-88.664062zm0 0"/><path d="m179.832031 240.332031c-35.664062 0-69.632812-13.289062-88.664062-34.679687l11.953125-10.632813c16.085937 18.082031 45.480468 29.3125 76.710937 29.3125zm0 0"/><path d="m79.585938 187.324219c-2.488282-6.183594-3.753907-12.578125-3.753907-18.992188h16c0 4.359375.871094 8.734375 2.59375 13.007813zm0 0"/><path d="m275.832031 280.332031h16v16h-16zm0 0"/><path d="m195.832031 288.332031h16v16h-16zm0 0"/><path d="m363.832031 272.332031h16v16h-16zm0 0"/><path d="m243.832031 304.332031h16v16h-16zm0 0"/><path d="m115.832031 280.332031h16v16h-16zm0 0"/></svg>